<svg xmlns="http://www.w3.org/2000/svg" width="19.81" height="19.96" viewBox="0 0 19.81 19.96"><defs><style>.cls-1{fill:#17242a;}</style></defs><title>ic_comment</title><g id="Layer_15" data-name="Layer 15"><path class="cls-1" d="M13.57,6.05H5.76a.5.5,0,0,1,0-1h7.81a.5.5,0,0,1,.5.5A.5.5,0,0,1,13.57,6.05ZM11.85,9.66a.5.5,0,0,0-.49-.5H5.86a.5.5,0,1,0,0,1h5.5A.5.5,0,0,0,11.85,9.66ZM5,17.46l4.31-4h5.41a2.6,2.6,0,0,0,2.6-2.59V4.61A2.6,2.6,0,0,0,14.74,2h-10A2.59,2.59,0,0,0,2.1,4.61V10.9a2.59,2.59,0,0,0,2.09,2.54V17.1a.51.51,0,0,0,.3.46.65.65,0,0,0,.2,0A.47.47,0,0,0,5,17.46ZM14.74,3a1.6,1.6,0,0,1,1.6,1.6V10.9a1.6,1.6,0,0,1-1.6,1.6H9.13a.5.5,0,0,0-.34.13L5.18,16V13a.49.49,0,0,0-.49-.49,1.6,1.6,0,0,1-1.6-1.6V4.61A1.6,1.6,0,0,1,4.69,3Zm4.77,18.93a.51.51,0,0,0,.3-.46V17.83a2.61,2.61,0,0,0,2.09-2.55V9A2.6,2.6,0,0,0,19.31,6.4a.5.5,0,0,0-.49.5.49.49,0,0,0,.49.5A1.6,1.6,0,0,1,20.91,9v6.29a1.6,1.6,0,0,1-1.6,1.6.49.49,0,0,0-.49.5v3L15.21,17a.55.55,0,0,0-.34-.13H9.26a1.53,1.53,0,0,1-.67-.15.51.51,0,0,0-.67.24.51.51,0,0,0,.24.66,2.64,2.64,0,0,0,1.1.25h5.41l4.31,4a.46.46,0,0,0,.33.13A.45.45,0,0,0,19.51,21.94Z" transform="translate(-2.1 -2.02)"/></g></svg>