<svg xmlns="http://www.w3.org/2000/svg" width="19.82" height="16.54" viewBox="0 0 19.82 16.54"><defs><style>.cls-1{fill:#17242a;}</style></defs><title>ic_heart_outline2</title><g id="outline_heart" data-name="outline heart"><path class="cls-1" d="M20.39,5a4.44,4.44,0,0,0-3.2-1.29A6.05,6.05,0,0,0,13,5.52l-1,1-1-1A6.05,6.05,0,0,0,6.81,3.73,4.44,4.44,0,0,0,3.61,5a5.23,5.23,0,0,0,0,7.37l1,1,6.5,6.5a1.21,1.21,0,0,0,1.72,0l6.5-6.5,1-1a5.23,5.23,0,0,0,0-7.37Zm-.71,6.66-1,1-6.5,6.5a.22.22,0,0,1-.32,0l-6.5-6.5-1-1a4.21,4.21,0,0,1,0-5.95,3.45,3.45,0,0,1,2.49-1,5,5,0,0,1,3.46,1.5l1,1a1,1,0,0,0,1.4,0l1-1a5,5,0,0,1,3.46-1.5,3.45,3.45,0,0,1,2.49,1,4.21,4.21,0,0,1,0,5.95Z" transform="translate(-2.09 -3.73)"/></g></svg>